<?xml version="1.0" standalone="no"?>
<!DOCTYPE svg PUBLIC "-//W3C//DTD SVG 20010904//EN"
 "http://www.w3.org/TR/2001/REC-SVG-20010904/DTD/svg10.dtd">
<svg version="1.0" xmlns="http://www.w3.org/2000/svg"
 width="512.000000pt" height="512.000000pt" viewBox="0 0 512.000000 512.000000"
 preserveAspectRatio="xMidYMid meet">

<g transform="translate(0.000000,512.000000) scale(0.100000,-0.100000)"
fill="#44B">
<path d="M2400 5114 c-643 -55 -1176 -291 -1614 -714 -418 -404 -677 -914
-762 -1505 -24 -165 -24 -505 0 -670 81 -560 315 -1044 696 -1439 404 -418
914 -677 1505 -762 165 -24 505 -24 670 0 998 144 1794 810 2100 1757 86 265
119 482 119 779 0 297 -33 514 -119 779 -305 945 -1111 1620 -2095 1756 -112
15 -411 27 -500 19z m1191 -2050 c81 -26 129 -99 129 -196 0 -65 -37 -147
-133 -293 -36 -55 -65 -100 -64 -102 2 -1 90 32 197 73 107 41 213 76 236 77
112 6 176 -136 96 -215 -23 -23 -81 -49 -253 -110 -453 -162 -446 -160 -529
-117 -91 46 -113 168 -52 286 18 35 60 104 95 155 78 115 128 198 122 198 -12
0 -93 -45 -155 -86 -36 -23 -144 -112 -241 -198 -170 -149 -181 -157 -300
-211 -68 -31 -229 -110 -357 -176 -155 -79 -244 -119 -265 -119 -61 0 -127 62
-127 119 0 12 40 145 90 298 49 152 88 278 86 280 -2 2 -14 -1 -27 -6 -155
-66 -952 -354 -976 -354 -66 2 -125 62 -125 127 0 41 24 89 54 108 13 7 158
63 323 122 165 60 428 158 584 217 291 112 338 123 391 96 93 -47 92 -180 -4
-486 -20 -63 -35 -116 -32 -118 2 -2 39 13 82 35 44 22 124 59 179 83 85 37
116 57 210 139 236 206 349 289 470 346 114 55 190 62 296 28z"/>
</g>
</svg>
